HIERARCHY
ROOT hip
{
  OFFSET -4.43778 81.1123 39.4375
  CHANNELS 6 Xposition Yposition Zposition Zrotation Xrotation Yrotation
  JOINT abdomen
  {
    OFFSET 0 20.6881 -0.73152
    CHANNELS 3 Zrotation Xrotation Yrotation
    JOINT chest
    {
      OFFSET 0 11.7043 -0.48768
      CHANNELS 3 Zrotation Xrotation Yrotation
      JOINT neck
      {
        OFFSET 0 22.1894 -2.19456
        CHANNELS 3 Zrotation Xrotation Yrotation
        JOINT head
        {
          OFFSET -0.24384 7.07133 1.2192
          CHANNELS 3 Zrotation Xrotation Yrotation
          JOINT leftEye
          {
            OFFSET 4.14528 8.04674 8.04672
            CHANNELS 3 Zrotation Xrotation Yrotation
            End Site
            {
              OFFSET 1 0 0
            }
          }
          JOINT rightEye
          {
            OFFSET -3.6576 8.04674 8.04672
            CHANNELS 3 Zrotation Xrotation Yrotation
            End Site
            {
              OFFSET 1 0 0
            }
          }
        }
      }
      JOINT rCollar
      {
        OFFSET -2.68224 19.2634 -4.8768
        CHANNELS 3 Zrotation Xrotation Yrotation
        JOINT rShldr
        {
          OFFSET -8.77824 -1.95073 1.46304
          CHANNELS 3 Zrotation Xrotation Yrotation
          JOINT rForeArm
          {
            OFFSET -28.1742 -1.7115 0.48768
            CHANNELS 3 Zrotation Xrotation Yrotation
            JOINT rHand
            {
              OFFSET -22.5879 0.773209 7.07136
              CHANNELS 3 Zrotation Xrotation Yrotation
              JOINT rThumb1
              {
                OFFSET -1.2192 -0.487915 3.41376
                CHANNELS 3 Zrotation Xrotation Yrotation
                JOINT rThumb2
                {
                  OFFSET -3.37035 -0.52449 3.41376
                  CHANNELS 3 Zrotation Xrotation Yrotation
                  End Site
                  {
                    OFFSET -1.78271 -1.18214 1.43049
                  }
                }
              }
              JOINT rIndex1
              {
                OFFSET -7.75947 0.938293 5.60832
                CHANNELS 3 Zrotation Xrotation Yrotation
                JOINT rIndex2
                {
                  OFFSET -2.54057 -0.884171 1.56538
                  CHANNELS 3 Zrotation Xrotation Yrotation
                  End Site
                  {
                    OFFSET -1.62519 -0.234802 1.16502
                  }
                }
              }
              JOINT rMid1
              {
                OFFSET -8.24714 1.18213 3.41376
                CHANNELS 3 Zrotation Xrotation Yrotation
                JOINT rMid2
                {
                  OFFSET -3.10165 -0.590103 1.0647
                  CHANNELS 3 Zrotation Xrotation Yrotation
                  End Site
                  {
                    OFFSET -2.48547 -0.328903 0.83742
                  }
                }
              }
              JOINT rRing1
              {
                OFFSET -8.82822 0.546677 1.51678
                CHANNELS 3 Zrotation Xrotation Yrotation
                JOINT rRing2
                {
                  OFFSET -2.60934 -0.819778 -0.0198488
                  CHANNELS 3 Zrotation Xrotation Yrotation
                  End Site
                  {
                    OFFSET -2.33842 -0.294052 0.168128
                  }
                }
              }
              JOINT rPinky1
              {
                OFFSET -8.27202 -0.0477905 -0.4584
                CHANNELS 3 Zrotation Xrotation Yrotation
                JOINT rPinky2
                {
                  OFFSET -1.82734 -0.647385 -0.700984
                  CHANNELS 3 Zrotation Xrotation Yrotation
                  End Site
                  {
                    OFFSET -1.69225 -0.51767 -0.607171
                  }
                }
              }
            }
          }
        }
      }
      JOINT lCollar
      {
        OFFSET 2.68224 19.2634 -4.8768
        CHANNELS 3 Zrotation Xrotation Yrotation
        JOINT lShldr
        {
          OFFSET 8.77824 -1.95073 1.46304
          CHANNELS 3 Zrotation Xrotation Yrotation
          JOINT lForeArm
          {
            OFFSET 28.1742 -1.7115 0.48768
            CHANNELS 3 Zrotation Xrotation Yrotation
            JOINT lHand
            {
              OFFSET 22.5879 0.773209 7.07136
              CHANNELS 3 Zrotation Xrotation Yrotation
              JOINT lThumb1
              {
                OFFSET 1.2192 -0.487915 3.41376
                CHANNELS 3 Zrotation Xrotation Yrotation
                JOINT lThumb2
                {
                  OFFSET 3.37035 -0.52449 3.41376
                  CHANNELS 3 Zrotation Xrotation Yrotation
                  End Site
                  {
                    OFFSET 1.78271 -1.18214 1.43049
                  }
                }
              }
              JOINT lIndex1
              {
                OFFSET 7.75947 0.938293 5.60832
                CHANNELS 3 Zrotation Xrotation Yrotation
                JOINT lIndex2
                {
                  OFFSET 2.54057 -0.884171 1.56538
                  CHANNELS 3 Zrotation Xrotation Yrotation
                  End Site
                  {
                    OFFSET 1.62519 -0.234802 1.16502
                  }
                }
              }
              JOINT lMid1
              {
                OFFSET 8.24714 1.18213 3.41376
                CHANNELS 3 Zrotation Xrotation Yrotation
                JOINT lMid2
                {
                  OFFSET 3.10165 -0.590103 1.0647
                  CHANNELS 3 Zrotation Xrotation Yrotation
                  End Site
                  {
                    OFFSET 2.48547 -0.328903 0.83742
                  }
                }
              }
              JOINT lRing1
              {
                OFFSET 8.82822 0.546677 1.51678
                CHANNELS 3 Zrotation Xrotation Yrotation
                JOINT lRing2
                {
                  OFFSET 2.60934 -0.819778 -0.0198488
                  CHANNELS 3 Zrotation Xrotation Yrotation
                  End Site
                  {
                    OFFSET 2.33842 -0.294052 0.168128
                  }
                }
              }
              JOINT lPinky1
              {
                OFFSET 8.27202 -0.0477905 -0.4584
                CHANNELS 3 Zrotation Xrotation Yrotation
                JOINT lPinky2
                {
                  OFFSET 1.82734 -0.647385 -0.700984
                  CHANNELS 3 Zrotation Xrotation Yrotation
                  End Site
                  {
                    OFFSET 1.69225 -0.51767 -0.607171
                  }
                }
              }
            }
          }
        }
      }
    }
  }
  JOINT rButtock
  {
    OFFSET -8.77824 4.35084 1.2192
    CHANNELS 3 Zrotation Xrotation Yrotation
    JOINT rThigh
    {
      OFFSET 0 -1.70687 -2.19456
      CHANNELS 3 Zrotation Xrotation Yrotation
      JOINT rShin
      {
        OFFSET 0 -36.8199 0.73152
        CHANNELS 3 Zrotation Xrotation Yrotation
        JOINT rFoot
        {
          OFFSET 0.73152 -45.1104 -5.12064
          CHANNELS 3 Zrotation Xrotation Yrotation
          End Site
          {
            OFFSET -1.1221 -3.69964 12.103
          }
        }
      }
    }
  }
  JOINT lButtock
  {
    OFFSET 8.77824 4.35084 1.2192
    CHANNELS 3 Zrotation Xrotation Yrotation
    JOINT lThigh
    {
      OFFSET 0 -1.70687 -2.19456
      CHANNELS 3 Zrotation Xrotation Yrotation
      JOINT lShin
      {
        OFFSET 0 -36.8199 0.73152
        CHANNELS 3 Zrotation Xrotation Yrotation
        JOINT lFoot
        {
          OFFSET -0.73152 -45.1104 -5.12064
          CHANNELS 3 Zrotation Xrotation Yrotation
          End Site
          {
            OFFSET 1.1221 -3.69964 12.103
          }
        }
      }
    }
  }
}
MOTION
Frames:	9
Frame Time:	0.00833333
-40.4587 40.459 3.83138 -27.4088 -5.47869 -24.4021 -11.5673 37.4745 4.45754 -1.5197 0.17941 -0.125716 -5.62603 12.7606 -4.51767 26.7084 -13.4793 -5.85962 -0 0 0 -0 0 0 -5.81132e-013 -2.08834e-014 7.47058e-013 46.7981 13.3112 45.5234 -26.0606 -23.5859 56.8401 -0.205958 -12.8423 -1.83592 -2.06881e-009 -3.22784e-009 -1.49986e-009 -3.56241e-009 -5.59405e-009 -2.61349e-009 -2.06881e-009 -3.22784e-009 -1.49988e-009 7.73091 5.47488 0.417314 -2.06881e-009 -3.22785e-009 -1.49986e-009 2.90554 0.965183 0.102902 -2.0688e-009 -3.22785e-009 -1.49987e-009 10.2786 0.731801 0.0259123 -2.06881e-009 -3.22784e-009 -1.49986e-009 2.22167 -0.733487 -0.20892 -5.81259e-013 -2.08615e-014 7.46837e-013 -71.4745 -33.4731 -14.7671 5.50129 -1.80229 -9.62618 -0.00494231 4.36294 -0.610906 -8.62627e-010 -5.88793e-009 1.51992e-009 -1.46032e-009 -1.01888e-008 2.632e-009 -8.6263e-010 -5.88793e-009 1.51993e-009 -7.73091 5.47488 -0.417314 -8.62625e-010 -5.88793e-009 1.51992e-009 -2.90554 0.965183 -0.102902 -8.62634e-010 -5.88793e-009 1.51992e-009 -10.2786 0.731801 -0.0259123 -8.62623e-010 -5.88793e-009 1.51991e-009 -2.22167 -0.733487 0.20892 -2.03217e-016 0 -3.88251e-019 -81.2304 -58.6702 -60.7921 -175.063 75.0268 176.02 3.94441 1.14932 19.408 2.03217e-016 0 3.88251e-019 149.026 -35.5072 115.107 177.586 49.7912 -179.698 -8.39714 1.72667 -24.1973 
-39.4313 40.6155 4.25714 -26.6391 -5.67017 -23.6825 -11.0662 37.6504 3.27021 -0.892451 -0.0603544 -0.384297 -5.56644 12.7253 -4.64336 26.45 -13.9919 -6.01221 -0 0 0 -0 0 0 -5.45151e-013 2.06658e-013 1.26115e-012 50.4569 14.3839 43.8306 -25.3304 -21.8085 54.0367 -0.234905 -13.6757 -1.95975 -5.06257e-009 7.4376e-009 -1.33209e-009 -8.73264e-009 1.2766e-008 -2.35407e-009 -5.06258e-009 7.43762e-009 -1.33211e-009 7.73091 5.47488 0.417314 -5.06257e-009 7.4376e-009 -1.33209e-009 2.90554 0.965183 0.102902 -5.06257e-009 7.4376e-009 -1.33209e-009 10.2786 0.731801 0.0259123 -5.06258e-009 7.43761e-009 -1.33208e-009 2.22167 -0.733487 -0.20892 -5.45363e-013 2.06665e-013 1.26085e-012 -71.1626 -33.1185 -14.1344 5.46482 -1.78446 -9.56429 0.0491495 7.49876 -1.05754 -1.03744e-009 -7.54131e-009 5.009e-009 -1.74301e-009 -1.30521e-008 8.66645e-009 -1.03744e-009 -7.54131e-009 5.00901e-009 -7.73091 5.47488 -0.417314 -1.03743e-009 -7.54131e-009 5.009e-009 -2.90554 0.965183 -0.102902 -1.03744e-009 -7.54131e-009 5.009e-009 -10.2786 0.731801 -0.0259123 -1.03743e-009 -7.54131e-009 5.00899e-009 -2.22167 -0.733487 0.20892 -2.03217e-016 0 -3.88251e-019 -78.2996 -61.1589 -55.8911 -173.106 80.0036 174.002 2.73702 0.961027 14.7492 2.03217e-016 0 3.88251e-019 149.336 -29.4277 110.212 177.718 46.6332 179.943 -10.2577 2.15614 -28.767 
-38.3982 40.6994 4.63933 -25.8043 -5.7923 -23 -10.5447 37.7647 2.16565 -0.307132 -0.215145 -0.609307 -5.55551 12.737 -4.81639 26.3687 -14.6508 -6.20587 -0 0 0 -0 0 0 -4.38728e-013 3.56222e-013 1.47916e-012 53.962 15.0722 42.0882 -24.5037 -20.0691 51.2442 -0.265763 -14.5199 -2.08594 -6.72059e-009 1.36501e-008 -1.21914e-009 -1.1595e-008 2.34596e-008 -2.17662e-009 -6.72059e-009 1.36502e-008 -1.21917e-009 7.73091 5.47488 0.417314 -6.72059e-009 1.36501e-008 -1.21914e-009 2.90554 0.965183 0.102902 -6.72058e-009 1.36501e-008 -1.21914e-009 10.2786 0.731801 0.0259123 -6.72059e-009 1.36501e-008 -1.21913e-009 2.22167 -0.733487 -0.20892 -4.38985e-013 3.56222e-013 1.47881e-012 -70.3858 -31.1522 -13.365 5.79795 -1.95441 -10.1248 0.111819 9.49303 -1.34663 -1.226e-009 -8.11943e-009 6.63994e-009 -2.0611e-009 -1.40536e-008 1.14882e-008 -1.22601e-009 -8.11943e-009 6.63994e-009 -7.73091 5.47488 -0.417314 -1.226e-009 -8.11943e-009 6.63993e-009 -2.90554 0.965183 -0.102902 -1.22601e-009 -8.11943e-009 6.63993e-009 -10.2786 0.731801 -0.0259123 -1.226e-009 -8.11943e-009 6.63993e-009 -2.22167 -0.733487 0.20892 -2.03217e-016 0 -3.88251e-019 -75.2355 -63.3491 -50.5138 -167.024 85.0525 167.865 1.782 0.922292 11.1153 2.03217e-016 0 3.88251e-019 150.12 -24.7374 105.563 177.785 44.1637 179.675 -11.898 2.85014 -33.053 
-37.3582 40.666 5.00217 -24.9083 -5.84401 -22.3582 -10.0162 37.8483 1.11839 0.267573 -0.283061 -0.803998 -5.62026 12.795 -5.02484 26.5363 -15.5168 -6.39514 -0 0 0 -0 0 0 -1.9433e-013 3.98114e-013 1.22606e-012 57.2845 15.2613 40.2683 -23.6148 -18.4064 48.4399 -0.29758 -15.327 -2.20769 -6.41288e-009 1.32272e-008 -1.23101e-009 -1.106e-008 2.27272e-008 -2.19648e-009 -6.41288e-009 1.32272e-008 -1.23103e-009 7.73091 5.47488 0.417314 -6.41288e-009 1.32272e-008 -1.23101e-009 2.90554 0.965183 0.102902 -6.41288e-009 1.32272e-008 -1.23101e-009 10.2786 0.731801 0.0259123 -6.41288e-009 1.32272e-008 -1.23099e-009 2.22167 -0.733487 -0.20892 -1.9457e-013 3.98118e-013 1.22572e-012 -68.9648 -26.6803 -12.4167 6.53287 -2.29526 -11.4495 0.136524 9.97716 -1.41796 -1.44126e-009 -6.9533e-009 5.35773e-009 -2.44361e-009 -1.20355e-008 9.27348e-009 -1.44127e-009 -6.9533e-009 5.35774e-009 -7.73091 5.47488 -0.417314 -1.44126e-009 -6.95331e-009 5.35773e-009 -2.90554 0.965183 -0.102902 -1.44127e-009 -6.95331e-009 5.35773e-009 -10.2786 0.731801 -0.0259123 -1.44126e-009 -6.9533e-009 5.35772e-009 -2.22167 -0.733487 0.20892 -2.03217e-016 0 -3.88251e-019 -72.0073 -65.264 -44.4475 -63.9621 88.8665 64.7595 1.23408 1.04155 8.92015 2.03217e-016 0 3.88251e-019 151.412 -21.3154 101.193 177.817 42.5326 179.471 -12.9836 4.38855 -37.1177 
-36.3404 40.5079 5.34064 -23.9703 -5.7848 -21.7084 -9.41956 37.8907 0.0827968 0.84951 -0.297464 -0.978238 -5.71964 12.8958 -5.26979 26.8881 -16.5899 -6.5922 -0 0 0 -0 0 0 1.58256e-013 3.83646e-013 6.76523e-013 60.461 14.9294 38.2853 -22.6412 -16.7503 45.5575 -0.33246 -16.1442 -2.33223 -4.92334e-009 8.81481e-009 -1.31607e-009 -8.48222e-009 1.51241e-008 -2.33201e-009 -4.92334e-009 8.81482e-009 -1.31609e-009 7.73091 5.47488 0.417314 -4.92335e-009 8.81481e-009 -1.31607e-009 2.90554 0.965183 0.102902 -4.92334e-009 8.81481e-009 -1.31607e-009 10.2786 0.731801 0.0259123 -4.92335e-009 8.81481e-009 -1.31606e-009 2.22167 -0.733487 -0.20892 1.58067e-013 3.83662e-013 6.76234e-013 -67.1921 -20.2789 -11.5228 7.55128 -2.76245 -13.3534 0.122513 9.41868 -1.33703 -1.65595e-009 -4.6402e-009 2.30018e-009 -2.83723e-009 -8.03191e-009 3.98973e-009 -1.65595e-009 -4.6402e-009 2.30019e-009 -7.73091 5.47488 -0.417314 -1.65594e-009 -4.6402e-009 2.30017e-009 -2.90554 0.965183 -0.102902 -1.65596e-009 -4.6402e-009 2.30017e-009 -10.2786 0.731801 -0.0259123 -1.65594e-009 -4.6402e-009 2.30016e-009 -2.22167 -0.733487 0.20892 -2.03217e-016 0 -3.88251e-019 -68.3422 -66.77 -37.5491 -8.63181 83.8432 9.38944 1.00006 1.05839 7.59028 2.03217e-016 0 3.88251e-019 153.046 -18.2954 97.2433 177.85 41.6207 179.3 -13.5666 6.33677 -41.1849 
-35.6291 39.9118 5.82717 -22.9785 -5.64318 -21.0799 -8.78785 37.8378 -0.838774 1.35897 -0.237635 -1.11729 -5.8212 13.0433 -5.5778 27.2969 -17.7313 -6.89702 -0 0 0 -0 0 0 4.8942e-013 3.41149e-013 9.33407e-014 63.3719 14.2149 36.2778 -21.5564 -15.0949 42.5804 -0.37202 -17.0442 -2.47016 -3.08149e-009 3.33932e-009 -1.35559e-009 -5.29696e-009 5.69245e-009 -2.38493e-009 -3.08149e-009 3.33933e-009 -1.3556e-009 7.73091 5.47488 0.417314 -3.08149e-009 3.33933e-009 -1.35559e-009 2.90554 0.965183 0.102902 -3.08149e-009 3.33932e-009 -1.35558e-009 10.2786 0.731801 0.0259123 -3.08149e-009 3.33932e-009 -1.35557e-009 2.22167 -0.733487 -0.20892 4.89288e-013 3.41179e-013 9.31058e-014 -65.5315 -13.4974 -10.9368 8.79881 -3.40605 -15.6614 0.0913159 8.29837 -1.17507 -1.86142e-009 -2.23737e-009 -1.01233e-009 -3.21662e-009 -3.87268e-009 -1.73528e-009 -1.86142e-009 -2.23737e-009 -1.01232e-009 -7.73091 5.47488 -0.417314 -1.86141e-009 -2.23737e-009 -1.01233e-009 -2.90554 0.965183 -0.102902 -1.86143e-009 -2.23737e-009 -1.01234e-009 -10.2786 0.731801 -0.0259123 -1.86141e-009 -2.23737e-009 -1.01235e-009 -2.22167 -0.733487 0.20892 -2.03217e-016 0 -3.88251e-019 -64.7271 -67.882 -30.6416 -4.07289 78.3039 4.78517 0.881227 1.18028 6.62319 2.03217e-016 0 3.88251e-019 154.264 -15.6783 94.0248 177.879 41.1821 179.18 -14.2004 7.53483 -44.9858 
-34.6771 39.524 6.161 -21.92 -5.44852 -20.5021 -8.15699 37.6388 -1.54218 1.71615 -0.0828601 -1.20643 -5.89183 13.2414 -5.97563 27.6293 -18.8011 -7.41037 -0 0 0 -0 0 0 6.69552e-013 2.98954e-013 -2.60706e-013 65.9258 13.2853 34.3776 -20.3332 -13.4367 39.4951 -0.4194 -18.0994 -2.63276 -1.71683e-009 -2.73006e-010 -1.23079e-009 -2.93959e-009 -5.25644e-010 -2.15697e-009 -1.71682e-009 -2.73006e-010 -1.2308e-009 7.73091 5.47488 0.417314 -1.71683e-009 -2.73006e-010 -1.23079e-009 2.90554 0.965183 0.102902 -1.71683e-009 -2.73009e-010 -1.23079e-009 10.2786 0.731801 0.0259123 -1.71683e-009 -2.73009e-010 -1.23078e-009 2.22167 -0.733487 -0.20892 6.69455e-013 2.9899e-013 -2.60905e-013 -64.2836 -7.90496 -10.7272 10.2126 -4.27159 -18.2007 0.0621768 7.09709 -1.00261 -2.04903e-009 -8.02066e-010 -3.05939e-009 -3.55642e-009 -1.38764e-009 -5.27376e-009 -2.04904e-009 -8.02066e-010 -3.05938e-009 -7.73091 5.47488 -0.417314 -2.04902e-009 -8.02069e-010 -3.05939e-009 -2.90554 0.965183 -0.102902 -2.04904e-009 -8.02069e-010 -3.0594e-009 -10.2786 0.731801 -0.0259123 -2.04902e-009 -8.02067e-010 -3.05941e-009 -2.22167 -0.733487 0.20892 -2.03217e-016 0 -3.88251e-019 -61.7549 -68.755 -24.6748 -2.5107 73.0281 3.16279 0.69749 1.61614 5.51623 2.03217e-016 0 3.88251e-019 154.266 -13.6708 91.5886 177.892 40.9704 179.132 -15.7397 7.11655 -48.1437 
-33.7522 39.0979 6.46505 -20.676 -5.15429 -19.9511 -7.63605 37.1929 -1.91268 1.83058 0.233321 -1.22647 -5.8615 13.5449 -6.49649 27.9234 -19.8779 -8.1799 -0 0 0 -0 0 0 6.20554e-013 2.51569e-013 -2.6951e-013 68.1818 11.9571 32.6088 -18.9441 -11.7782 36.1311 -0.489946 -19.5948 -2.86568 -9.23235e-010 -1.19395e-009 -7.19401e-010 -1.57585e-009 -2.10048e-009 -1.26376e-009 -9.23231e-010 -1.19395e-009 -7.19413e-010 7.73091 5.47488 0.417314 -9.23241e-010 -1.19395e-009 -7.19401e-010 2.90554 0.965183 0.102902 -9.23234e-010 -1.19396e-009 -7.19398e-010 10.2786 0.731801 0.0259123 -9.23243e-010 -1.19396e-009 -7.19388e-010 2.22167 -0.733487 -0.20892 6.20457e-013 2.51604e-013 -2.69696e-013 -63.3211 -3.78227 -10.8436 11.7475 -5.31291 -21.0658 0.0349881 5.73487 -0.808253 -2.40096e-009 -1.04388e-009 -3.20354e-009 -4.16803e-009 -1.80471e-009 -5.52412e-009 -2.40097e-009 -1.04388e-009 -3.20352e-009 -7.73091 5.47488 -0.417314 -2.40096e-009 -1.04388e-009 -3.20355e-009 -2.90554 0.965183 -0.102902 -2.40097e-009 -1.04388e-009 -3.20355e-009 -10.2786 0.731801 -0.0259123 -2.40095e-009 -1.04388e-009 -3.20356e-009 -2.22167 -0.733487 0.20892 -2.03217e-016 0 -3.88251e-019 -59.9469 -69.5048 -19.8429 -1.70833 67.8675 2.27439 0.423723 2.54443 4.10376 2.03217e-016 0 3.88251e-019 152.098 -12.7634 89.6505 177.879 41.2408 179.207 -18.9111 4.72918 -50.5786 
-32.835 38.6224 6.76252 -19.296 -4.76176 -19.4229 -7.17399 36.5619 -2.03423 1.7673 0.67956 -1.19042 -5.76242 13.9321 -7.119 28.2029 -20.9913 -9.1536 -0 0 0 -0 0 0 4.26063e-013 1.88234e-013 -8.85679e-014 70.1096 10.1999 30.9398 -17.3949 -10.1224 32.5275 -0.588638 -21.4025 -3.15454 -3.0075e-010 -1.00016e-009 5.17013e-011 -5.1256e-010 -1.74957e-009 7.84517e-011 -3.00745e-010 -1.00016e-009 5.16894e-011 7.73091 5.47488 0.417314 -3.00754e-010 -1.00016e-009 5.17035e-011 2.90554 0.965183 0.102902 -3.0075e-010 -1.00016e-009 5.17046e-011 10.2786 0.731801 0.0259123 -3.00759e-010 -1.00016e-009 5.17149e-011 2.22167 -0.733487 -0.20892 4.25947e-013 1.88264e-013 -8.87511e-014 -62.4305 -0.356745 -11.181 13.3686 -6.47975 -24.3163 0.0118713 4.02445 -0.565919 -2.86033e-009 -2.2564e-009 -2.333e-009 -4.95892e-009 -3.90134e-009 -4.02145e-009 -2.86033e-009 -2.25639e-009 -2.33298e-009 -7.73091 5.47488 -0.417314 -2.86033e-009 -2.2564e-009 -2.333e-009 -2.90554 0.965183 -0.102902 -2.86033e-009 -2.2564e-009 -2.333e-009 -10.2786 0.731801 -0.0259123 -2.86032e-009 -2.25639e-009 -2.33301e-009 -2.22167 -0.733487 0.20892 -2.03217e-016 0 -3.88251e-019 -59.159 -70.2006 -15.9737 -1.23226 62.7572 1.69068 0.190528 3.81462 2.66362 2.03217e-016 0 3.88251e-019 148.226 -12.7732 87.6138 177.846 42.0175 179.379 -23.394 1.24989 -52.6625 
